<svg xmlns="http://www.w3.org/2000/svg" width="512" height="512" viewBox="0 0 512 512">
  <defs>
    <linearGradient id="bg" x1="0" y1="0" x2="1" y2="1">
      <stop offset="0" stop-color="#0b1322"/>
      <stop offset="1" stop-color="#2a1836"/>
    </linearGradient>
    <linearGradient id="accent" x1="0" y1="0" x2="1" y2="1">
      <stop offset="0" stop-color="#87d7ff"/>
      <stop offset="1" stop-color="#8f9dff"/>
    </linearGradient>
  </defs>
  <rect width="512" height="512" rx="112" fill="url(#bg)"/>
  <path d="M148 116v214c0 49-35 78-78 78-36 0-62-20-62-51 0-39 36-68 86-68 9 0 19 1 28 3V116h26z" fill="url(#accent)" transform="translate(66 0)"/>
  <rect x="240" y="126" width="176" height="28" rx="14" fill="#f5f7fa"/>
  <rect x="240" y="190" width="142" height="22" rx="11" fill="#aeb8c8"/>
  <rect x="240" y="244" width="176" height="22" rx="11" fill="#aeb8c8"/>
  <path d="M244 330h66l-33 74z" fill="#87d7ff"/>
  <path d="M336 330h72v24h-72zm10 50h62v24h-62z" fill="#f5f7fa"/>
</svg>
